<svg width="17" height="18" viewBox="0 0 17 18" fill="none" xmlns="http://www.w3.org/2000/svg">
<path d="M5.31563 0.984375H1.74375C0.7875 0.984375 0 1.77188 0 2.72813V6.3C0 7.25625 0.7875 8.04375 1.74375 8.04375H5.31563C6.27188 8.04375 7.05938 7.25625 7.05938 6.3V2.75625C7.0875 1.77187 6.3 0.984375 5.31563 0.984375ZM5.82188 6.32812C5.82188 6.60938 5.59688 6.83438 5.31563 6.83438H1.74375C1.4625 6.83438 1.2375 6.60938 1.2375 6.32812V2.75625C1.2375 2.475 1.4625 2.25 1.74375 2.25H5.31563C5.59688 2.25 5.82188 2.475 5.82188 2.75625V6.32812Z" fill="#DEE4EE"/>
<path d="M14.6813 0.984375H11.1095C10.1532 0.984375 9.36572 1.77188 9.36572 2.72813V6.3C9.36572 7.25625 10.1532 8.04375 11.1095 8.04375H14.6813C15.6376 8.04375 16.4251 7.25625 16.4251 6.3V2.75625C16.4251 1.77187 15.6376 0.984375 14.6813 0.984375ZM15.1876 6.32812C15.1876 6.60938 14.9626 6.83438 14.6813 6.83438H11.1095C10.8282 6.83438 10.6032 6.60938 10.6032 6.32812V2.75625C10.6032 2.475 10.8282 2.25 11.1095 2.25H14.6813C14.9626 2.25 15.1876 2.475 15.1876 2.75625V6.32812Z" fill="#DEE4EE"/>
<path d="M5.31563 9.9563H1.74375C0.7875 9.9563 0 10.7438 0 11.7V15.2719C0 16.2282 0.7875 17.0157 1.74375 17.0157H5.31563C6.27188 17.0157 7.05938 16.2282 7.05938 15.2719V11.7282C7.0875 10.7438 6.3 9.9563 5.31563 9.9563ZM5.82188 15.3C5.82188 15.5813 5.59688 15.8063 5.31563 15.8063H1.74375C1.4625 15.8063 1.2375 15.5813 1.2375 15.3V11.7282C1.2375 11.4469 1.4625 11.2219 1.74375 11.2219H5.31563C5.59688 11.2219 5.82188 11.4469 5.82188 11.7282V15.3Z" fill="#DEE4EE"/>
<path d="M14.6813 9.9563H11.1095C10.1532 9.9563 9.36572 10.7438 9.36572 11.7V15.2719C9.36572 16.2282 10.1532 17.0157 11.1095 17.0157H14.6813C15.6376 17.0157 16.4251 16.2282 16.4251 15.2719V11.7282C16.4251 10.7438 15.6376 9.9563 14.6813 9.9563ZM15.1876 15.3C15.1876 15.5813 14.9626 15.8063 14.6813 15.8063H11.1095C10.8282 15.8063 10.6032 15.5813 10.6032 15.3V11.7282C10.6032 11.4469 10.8282 11.2219 11.1095 11.2219H14.6813C14.9626 11.2219 15.1876 11.4469 15.1876 11.7282V15.3Z" fill="#DEE4EE"/>
</svg>
