<svg width="18" height="18" viewBox="0 0 18 18" fill="none" xmlns="http://www.w3.org/2000/svg">
<path d="M13.753 2.47502H11.5874V1.9969C11.5874 1.15315 10.9124 0.478149 10.0687 0.478149H7.90303C7.05928 0.478149 6.38428 1.15315 6.38428 1.9969V2.47502H4.21865C3.40303 2.47502 2.72803 3.15002 2.72803 3.96565V4.8094C2.72803 5.42815 3.09365 5.9344 3.62803 6.1594L4.07803 15.4688C4.13428 16.6219 5.09053 17.5219 6.24365 17.5219H11.6999C12.853 17.5219 13.8093 16.6219 13.8655 15.4688L14.3437 6.13127C14.878 5.90627 15.2437 5.3719 15.2437 4.78127V3.93752C15.2437 3.15002 14.5687 2.47502 13.753 2.47502ZM7.67803 1.9969C7.67803 1.85627 7.79053 1.74377 7.93115 1.74377H10.0968C10.2374 1.74377 10.3499 1.85627 10.3499 1.9969V2.47502H7.70615V1.9969H7.67803ZM4.02178 3.96565C4.02178 3.85315 4.10615 3.74065 4.24678 3.74065H13.753C13.8655 3.74065 13.978 3.82502 13.978 3.96565V4.8094C13.978 4.9219 13.8937 5.0344 13.753 5.0344H4.24678C4.13428 5.0344 4.02178 4.95002 4.02178 4.8094V3.96565ZM11.728 16.2563H6.27178C5.79365 16.2563 5.3999 15.8906 5.37178 15.3844L4.9499 6.2719H13.078L12.6562 15.3844C12.5999 15.8625 12.2062 16.2563 11.728 16.2563Z" fill="#64748B"/>
<path d="M8.9999 9.11255C8.6624 9.11255 8.35303 9.3938 8.35303 9.75942V13.3313C8.35303 13.6688 8.63428 13.9782 8.9999 13.9782C9.3374 13.9782 9.64678 13.6969 9.64678 13.3313V9.75942C9.64678 9.3938 9.3374 9.11255 8.9999 9.11255Z" fill="#64748B"/>
<path d="M11.2497 9.67504C10.8841 9.64692 10.6028 9.90004 10.5747 10.2657L10.4059 12.7407C10.3778 13.0782 10.6309 13.3875 10.9966 13.4157C11.0247 13.4157 11.0247 13.4157 11.0528 13.4157C11.3903 13.4157 11.6716 13.1625 11.6716 12.825L11.8403 10.35C11.8403 9.98442 11.5872 9.70317 11.2497 9.67504Z" fill="#64748B"/>
<path d="M6.72196 9.67504C6.38446 9.70317 6.10321 10.0125 6.13134 10.35L6.32821 12.825C6.35634 13.1625 6.63759 13.4157 6.94696 13.4157C6.97509 13.4157 6.97509 13.4157 7.00321 13.4157C7.34071 13.3875 7.62196 13.0782 7.59384 12.7407L7.39696 10.2657C7.39696 9.90004 7.08759 9.64692 6.72196 9.67504Z" fill="#64748B"/>
</svg>
