<svg width="17" height="18" viewBox="0 0 17 18" fill="none" xmlns="http://www.w3.org/2000/svg">
<g clip-path="url(#clip0_949_1170)">
<rect width="17" height="17.2849" transform="translate(0 0.34082)" fill="white"/>
<path d="M6.07143 15.453L0.607147 17.0086L2.13715 11.4528L12.1429 1.32875C12.2559 1.21115 12.3911 1.11772 12.5401 1.05393C12.6892 0.990135 12.8493 0.957275 13.0111 0.957275C13.1728 0.957275 13.333 0.990135 13.4821 1.05393C13.6311 1.11772 13.7662 1.21115 13.8793 1.32875L16.0286 3.5264C16.1424 3.64117 16.2327 3.77773 16.2944 3.92817C16.3561 4.07863 16.3878 4.24001 16.3878 4.40299C16.3878 4.56598 16.3561 4.72735 16.2944 4.87781C16.2327 5.02826 16.1424 5.16481 16.0286 5.27958L6.07143 15.453Z" stroke="#64748B" stroke-width="2" stroke-linecap="round" stroke-linejoin="round"/>
</g>
<defs>
<clipPath id="clip0_949_1170">
<rect width="17" height="17.2849" fill="white" transform="translate(0 0.34082)"/>
</clipPath>
</defs>
</svg>
