<svg width="18" height="24" viewBox="0 0 18 24" fill="none" xmlns="http://www.w3.org/2000/svg">
<path d="M2.99316 2.92993C2.57916 2.92993 2.24316 3.37793 2.24316 3.92993C2.24316 4.48193 2.57916 4.92993 2.99316 4.92993H14.9932C15.4072 4.92993 15.7432 4.48193 15.7432 3.92993C15.7432 3.37793 15.4072 2.92993 14.9932 2.92993H2.99316ZM4.49317 6.92993C3.25041 6.92993 2.24316 8.27293 2.24316 9.92993V13.9299C2.24316 15.5869 3.25041 16.9299 4.49317 16.9299H13.4932C14.7359 16.9299 15.7432 15.5869 15.7432 13.9299V9.92993C15.7432 8.27293 14.7359 6.92993 13.4932 6.92993H4.49317ZM4.49317 8.92993H13.4932C13.9072 8.92993 14.2432 9.37793 14.2432 9.92993V13.9299C14.2432 14.4819 13.9072 14.9299 13.4932 14.9299H4.49317C4.07917 14.9299 3.74317 14.4819 3.74317 13.9299V9.92993C3.74317 9.37793 4.07917 8.92993 4.49317 8.92993ZM2.99316 18.9299C2.57916 18.9299 2.24316 19.3779 2.24316 19.9299C2.24316 20.4819 2.57916 20.9299 2.99316 20.9299H14.9932C15.4072 20.9299 15.7432 20.4819 15.7432 19.9299C15.7432 19.3779 15.4072 18.9299 14.9932 18.9299H2.99316Z" fill="#DEE4EE"/>
</svg>
