<?xml version="1.0" standalone="no"?>
<!DOCTYPE svg PUBLIC "-//W3C//DTD SVG 20010904//EN"
 "http://www.w3.org/TR/2001/REC-SVG-20010904/DTD/svg10.dtd">
<svg version="1.0" xmlns="http://www.w3.org/2000/svg"
 width="1080.000000pt" height="1080.000000pt" viewBox="0 0 1080.000000 1080.000000"
 preserveAspectRatio="xMidYMid meet">

<g transform="translate(0.000000,1080.000000) scale(0.100000,-0.100000)"
fill="#000000" stroke="none">
<path d="M5005 10219 c-143 -12 -296 -32 -291 -36 2 -3 71 3 153 14 214 26
852 26 1066 0 82 -11 150 -17 153 -14 5 5 -145 23 -306 37 -133 11 -643 11
-775 -1z"/>
<path d="M4515 10154 c-725 -136 -1427 -444 -2009 -882 -359 -270 -708 -619
-978 -978 -440 -585 -751 -1295 -883 -2017 -14 -76 -25 -148 -24 -160 0 -12
12 39 25 113 229 1271 921 2363 1972 3111 592 422 1265 695 2032 827 31 6 42
10 25 10 -16 0 -88 -11 -160 -24z"/>
<path d="M6150 10168 c182 -31 425 -86 579 -129 1577 -452 2826 -1687 3295
-3260 79 -267 135 -541 173 -849 14 -116 18 -222 18 -530 0 -412 -7 -511 -61
-820 -238 -1383 -1059 -2583 -2269 -3315 -624 -378 -1356 -613 -2098 -674
-165 -14 -609 -14 -774 0 -967 79 -1875 440 -2628 1044 -923 740 -1527 1761
-1739 2935 -13 74 -25 125 -25 113 -1 -12 10 -84 24 -160 150 -817 505 -1571
1053 -2233 123 -148 444 -469 592 -592 795 -658 1704 -1031 2725 -1118 155
-13 615 -13 770 0 924 79 1787 405 2510 948 268 201 610 524 807 762 658 795
1031 1704 1118 2725 13 155 13 615 0 770 -79 924 -405 1787 -948 2510 -267
356 -620 708 -978 977 -585 440 -1295 751 -2017 883 -76 14 -148 24 -160 24
-12 -1 3 -6 33 -11z"/>
<path d="M5160 10064 c-323 -27 -472 -47 -705 -94 -203 -41 -317 -72 -525
-141 -286 -95 -656 -260 -870 -389 -431 -260 -767 -528 -1068 -853 -600 -644
-997 -1417 -1166 -2267 -130 -648 -125 -1264 15 -1920 38 -182 61 -267 121
-450 43 -131 152 -417 163 -428 2 -2 127 51 277 118 150 68 363 163 473 212
110 49 203 93 208 97 4 4 -11 52 -33 106 -114 280 -191 586 -236 940 -27 205
-24 621 5 840 57 433 158 774 337 1140 354 727 938 1313 1659 1665 1191 581
2596 469 3674 -294 330 -235 665 -574 893 -906 383 -557 597 -1200 627 -1876
8 -206 7 -291 -10 -489 -28 -347 -130 -763 -264 -1076 l-35 -80 33 -14 c18 -7
190 -84 382 -171 479 -214 548 -245 551 -241 9 9 70 153 108 255 142 383 219
706 278 1162 18 142 18 811 0 970 -109 952 -464 1789 -1073 2525 -128 155
-467 487 -629 617 -590 472 -1251 790 -1948 938 -345 73 -582 100 -932 104
-146 2 -285 2 -310 0z m298 -270 c189 -94 189 -417 -2 -516 -35 -19 -62 -23
-178 -26 l-136 -4 -6 53 c-3 30 -7 159 -9 287 l-4 232 142 0 c132 0 145 -2
193 -26z m-545 -279 c26 -153 46 -279 45 -280 -2 -2 -27 -8 -56 -13 l-52 -9
-137 163 c-126 150 -161 186 -148 152 12 -31 62 -344 56 -350 -3 -4 -26 -8
-51 -10 l-45 -3 -47 270 c-26 149 -46 274 -44 280 1 5 33 15 70 21 l68 11 120
-144 c66 -79 122 -142 123 -141 3 3 -39 250 -50 295 -4 19 1 23 37 31 24 5 48
9 53 8 6 -2 32 -128 58 -281z m1120 266 c26 -4 49 -10 52 -12 2 -3 24 -128 50
-279 25 -151 47 -283 49 -293 4 -16 0 -18 -27 -14 -18 3 -51 9 -73 12 l-42 6
-6 59 c-8 65 -3 62 -111 75 -27 4 -57 9 -67 11 -12 4 -23 -10 -42 -52 l-26
-57 -50 5 c-28 3 -53 8 -57 11 -3 4 29 80 72 169 43 90 100 209 127 266 54
113 48 110 151 93z m505 -101 c28 -8 52 -18 52 -22 0 -5 -27 -104 -61 -220
-33 -116 -57 -214 -52 -218 4 -4 51 -20 103 -34 52 -15 96 -29 99 -32 5 -4
-16 -95 -23 -102 -5 -5 -330 88 -339 97 -11 11 144 553 157 548 6 -2 35 -10
64 -17z m-2309 -68 c7 -24 11 -45 9 -47 -2 -1 -53 -19 -114 -39 -143 -49 -138
-45 -125 -92 20 -70 18 -70 122 -35 52 17 97 31 101 31 5 0 38 -84 38 -96 0
-1 -44 -17 -97 -35 -54 -17 -99 -33 -101 -34 -8 -7 33 -115 43 -115 6 0 65 18
130 40 65 22 120 40 121 40 3 0 34 -92 34 -101 0 -10 -377 -135 -385 -128 -7
8 -185 533 -181 536 10 10 382 129 387 124 3 -3 11 -26 18 -49z m2854 -117
c20 -8 37 -18 37 -22 0 -13 -202 -508 -210 -517 -9 -9 -120 31 -120 44 0 6
128 324 196 489 15 36 23 37 97 6z m-3530 -126 c36 -10 117 -72 117 -89 0 -4
-22 -22 -50 -40 l-50 -32 -31 26 c-43 36 -91 35 -130 -3 -19 -19 -29 -40 -29
-58 0 -80 65 -208 124 -245 67 -42 156 2 156 77 0 45 -11 50 -59 25 -22 -11
-44 -20 -49 -20 -4 0 -18 20 -30 45 l-22 45 100 50 c55 27 103 50 108 50 5 0
99 -175 140 -262 2 -5 -9 -13 -24 -18 -22 -9 -31 -7 -49 10 l-22 21 -25 -48
c-32 -63 -98 -105 -173 -111 -131 -11 -262 119 -294 290 -24 132 29 230 151
279 50 21 88 23 141 8z m3977 -89 c32 -16 61 -34 64 -39 5 -7 -92 -513 -110
-573 -4 -14 -12 -12 -62 16 -61 34 -60 32 -51 120 l4 40 -79 44 -79 43 -44
-43 -44 -43 -46 25 c-25 14 -46 29 -47 33 -1 9 415 406 427 406 4 1 34 -12 67
-29z m-4391 -410 c89 -120 161 -223 161 -228 0 -5 -19 -22 -43 -39 l-42 -31
-194 85 c-106 46 -195 82 -198 80 -2 -3 41 -66 97 -141 55 -75 103 -142 106
-150 4 -11 -72 -75 -79 -65 -2 2 -78 106 -169 231 l-166 226 21 19 c50 44 88
65 111 59 12 -3 89 -35 171 -71 81 -36 150 -63 152 -61 3 2 -34 57 -82 121
-48 64 -89 123 -91 129 -5 13 65 68 77 61 4 -3 79 -104 168 -225z m4900 83 c2
-2 -6 -84 -19 -183 -12 -99 -21 -183 -18 -185 2 -2 43 47 91 109 48 63 93 119
100 124 8 7 23 1 50 -21 l37 -32 -67 -87 c-38 -47 -115 -147 -173 -222 -58
-75 -109 -136 -115 -136 -5 0 -27 15 -48 33 l-38 32 29 213 c15 117 25 211 21
210 -6 -3 -95 -116 -192 -245 -18 -23 -34 -42 -37 -42 -3 0 -22 14 -42 32
l-37 32 175 227 176 228 51 -43 c29 -23 54 -43 56 -44z m-5559 -298 l34 -35
-97 -98 -97 -97 42 -43 43 -42 76 76 77 76 37 -37 36 -38 -75 -76 -76 -77 45
-44 45 -44 93 92 c51 51 97 92 103 92 5 0 25 -16 44 -35 l34 -35 -144 -145
-145 -145 -202 202 -203 203 142 142 c79 79 145 143 148 143 4 0 21 -16 40
-35z m6322 -421 c131 -95 139 -250 18 -386 -74 -85 -208 -136 -302 -117 -59
13 -128 72 -158 135 -52 107 7 256 137 345 67 46 110 59 190 56 62 -2 77 -6
115 -33z m-6664 -94 c51 -37 82 -95 82 -154 0 -38 -8 -57 -56 -126 -30 -45
-54 -83 -52 -84 2 -2 38 -29 81 -61 42 -31 77 -61 77 -65 0 -10 -56 -86 -70
-95 -10 -6 -460 322 -460 335 0 16 181 238 209 257 52 35 135 32 189 -7z
m7065 -468 c80 -140 91 -171 84 -223 -11 -87 -89 -151 -181 -152 -72 -1 -110
23 -156 96 -70 113 -54 108 -156 49 -82 -47 -90 -50 -102 -34 -28 36 -53 95
-45 103 15 15 467 278 479 279 5 0 40 -53 77 -118z m-7686 -269 c21 -10 40
-19 42 -20 2 -1 -8 -30 -24 -64 -15 -33 -23 -65 -19 -69 5 -5 94 -47 199 -95
104 -47 193 -89 198 -94 7 -7 -37 -121 -48 -121 -2 0 -93 41 -202 90 -108 50
-202 90 -209 90 -6 0 -22 -25 -34 -55 -12 -31 -26 -58 -31 -61 -7 -4 -82 28
-97 41 -2 2 14 43 36 92 95 210 131 283 141 283 6 0 27 -8 48 -17z m8004 -375
c41 -100 75 -185 77 -189 3 -6 -75 -39 -94 -39 -5 0 -29 48 -52 108 -58 146
-50 138 -111 116 -28 -10 -51 -22 -51 -26 0 -5 16 -47 35 -95 19 -48 35 -90
35 -95 0 -8 -65 -38 -84 -38 -7 0 -30 43 -51 95 -21 52 -40 95 -41 95 -5 0
-109 -41 -112 -44 -1 -2 20 -59 47 -127 l50 -124 -51 -23 c-28 -12 -51 -21
-53 -20 -8 12 -145 363 -145 372 1 10 487 212 516 215 7 1 45 -81 85 -181z
m-7731 -260 c0 -6 -8 -35 -17 -65 l-17 -53 -62 0 -63 0 -25 -84 c-14 -46 -26
-88 -26 -92 0 -5 22 -23 49 -41 l49 -32 -15 -53 c-9 -29 -17 -54 -18 -56 -2
-2 -114 74 -249 168 -182 127 -245 177 -242 189 3 9 12 42 22 74 l18 57 298 0
c220 0 298 -3 298 -12z m7910 -295 c17 -73 31 -154 31 -181 2 -82 -43 -141
-124 -163 -53 -14 -93 -5 -138 30 l-36 29 -103 -74 c-56 -41 -106 -74 -110
-74 -11 0 -42 132 -33 140 4 4 50 35 101 69 50 34 92 67 92 74 0 6 -5 28 -10
48 l-10 37 -102 -24 c-56 -14 -107 -23 -113 -20 -11 4 -41 114 -33 122 4 3
130 33 448 106 46 10 86 21 89 24 12 11 23 -21 51 -143z m-8517 -227 c3 -7 8
-34 12 -59 6 -40 5 -46 -14 -52 -35 -11 -61 -54 -61 -99 0 -47 13 -66 45 -66
30 0 48 23 84 111 17 42 41 85 52 97 78 85 210 69 273 -31 25 -40 29 -57 28
-116 0 -114 -35 -189 -106 -235 -55 -36 -82 -34 -90 5 -13 66 -8 86 25 99 61
26 91 139 47 180 -43 40 -59 26 -122 -101 -62 -124 -84 -144 -165 -144 -71 0
-128 34 -157 92 -22 44 -24 137 -5 196 16 48 66 106 106 123 38 17 42 17 48 0z
m8342 -382 c154 -37 283 -70 287 -73 3 -3 8 -39 10 -80 l3 -75 -55 -21 c-404
-159 -497 -195 -503 -195 -5 0 -7 32 -5 71 l3 72 54 20 53 21 -7 90 c-4 50 -8
93 -10 94 -2 2 -27 9 -56 16 -43 9 -54 16 -60 36 -10 35 -11 90 -1 90 4 0 133
-30 287 -66z m-8152 -234 c91 -9 120 -25 157 -91 21 -38 25 -56 25 -134 0 -77
-4 -96 -25 -135 -15 -27 -41 -53 -65 -67 -39 -22 -47 -23 -265 -20 l-225 2 0
70 0 70 198 -4 c214 -4 246 2 266 45 25 56 2 136 -41 147 -13 4 -100 7 -193 7
-233 2 -225 0 -225 67 l0 54 158 -2 c86 0 192 -4 235 -9z m8047 -309 c0 -10 3
-38 6 -62 5 -42 4 -45 -24 -57 -67 -29 -78 -173 -14 -189 39 -9 55 7 83 88 51
150 88 189 179 189 58 0 93 -15 131 -57 82 -88 56 -280 -46 -343 -20 -12 -41
-20 -48 -17 -7 3 -18 27 -25 53 -9 43 -9 51 6 61 54 38 73 92 50 141 -14 29
-51 41 -73 22 -7 -6 -25 -48 -40 -93 -34 -107 -59 -145 -109 -168 -132 -60
-255 37 -256 202 0 113 39 191 112 228 53 26 68 26 68 2z m-8153 -342 c67 -25
101 -86 118 -211 3 -26 9 -49 13 -52 4 -2 43 2 87 10 128 21 121 23 129 -47 4
-34 5 -63 2 -66 -6 -7 -503 -83 -541 -83 -19 0 -22 10 -38 123 -21 147 -22
209 -3 245 18 34 54 68 86 81 34 13 112 13 147 0z m8232 -305 c150 -29 255
-53 258 -61 3 -6 -1 -37 -7 -68 -9 -45 -15 -55 -28 -51 -9 3 -125 26 -257 51
-304 58 -285 53 -285 70 0 8 5 37 11 65 10 45 14 51 33 47 11 -3 135 -27 275
-53z"/>
<path d="M5262 9538 l3 -182 50 3 c61 4 77 12 112 58 22 29 28 49 31 103 7
125 -49 200 -151 200 l-47 0 2 -182z"/>
<path d="M5932 9546 c-23 -49 -39 -93 -35 -97 5 -3 32 -9 61 -13 l52 -7 -6 38
c-3 21 -11 67 -18 103 l-12 65 -42 -89z"/>
<path d="M7366 9074 c-38 -35 -67 -66 -65 -68 2 -1 26 -14 52 -29 39 -21 49
-23 53 -12 12 30 41 175 35 175 -3 -1 -37 -30 -75 -66z"/>
<path d="M8632 8129 c-52 -26 -138 -102 -157 -140 -36 -68 0 -139 70 -139 47
0 99 27 163 85 88 79 104 135 53 186 -36 35 -69 37 -129 8z"/>
<path d="M1983 8033 c-14 -5 -88 -102 -82 -107 2 -2 29 -21 60 -44 l57 -41 20
22 c29 32 62 89 62 108 0 32 -40 69 -73 68 -18 0 -37 -3 -44 -6z"/>
<path d="M9045 7594 c-33 -20 -61 -37 -63 -39 -6 -6 38 -85 58 -105 41 -41
130 -10 130 46 0 17 -42 108 -59 126 -4 4 -33 -9 -66 -28z"/>
<path d="M1326 6642 c27 -25 143 -102 152 -102 6 0 16 18 22 41 6 22 14 47 17
55 4 12 -12 14 -98 14 -57 0 -99 -4 -93 -8z"/>
<path d="M9517 6445 c-27 -7 -51 -16 -54 -18 -2 -3 1 -31 7 -63 20 -97 82
-133 136 -78 28 27 28 41 3 137 -11 41 -17 43 -92 22z"/>
<path d="M9470 5705 c0 -36 4 -55 12 -55 21 0 179 63 173 69 -7 7 -143 40
-167 41 -15 0 -18 -9 -18 -55z"/>
<path d="M1162 4853 c-24 -9 -43 -62 -37 -101 14 -88 12 -84 58 -77 119 18
109 12 102 64 -4 25 -11 58 -16 72 -15 38 -67 58 -107 42z"/>
<path d="M5164 8909 c-506 -32 -1025 -186 -1472 -436 -715 -400 -1266 -1029
-1565 -1788 -218 -552 -292 -1176 -212 -1764 107 -781 465 -1488 1033 -2043
550 -537 1225 -865 2002 -973 183 -26 599 -31 800 -10 706 72 1340 335 1889
782 223 182 513 498 670 732 348 517 546 1071 602 1680 15 170 6 613 -15 766
-78 547 -264 1044 -552 1477 -135 202 -241 333 -414 511 -220 226 -412 383
-670 546 -147 93 -456 245 -630 309 -467 173 -960 244 -1466 211z m1342 -2689
c599 -998 1090 -1819 1092 -1825 2 -7 -720 -10 -2193 -10 -1207 0 -2195 3
-2195 8 0 7 2163 3620 2183 3645 6 7 13 9 17 5 4 -4 497 -825 1096 -1823z
m-2500 -2157 c165 -88 176 -317 19 -393 l-46 -22 48 -23 c86 -40 133 -112 133
-201 0 -101 -44 -175 -134 -222 l-51 -27 -287 -3 -288 -3 0 461 0 461 283 -3
c269 -3 284 -4 323 -25z m1015 1 c60 -28 124 -96 144 -152 34 -103 10 -235
-56 -307 -68 -74 -109 -87 -280 -93 l-149 -5 -2 -169 -3 -170 -105 0 -105 0
-3 462 -2 461 257 -3 c238 -3 262 -5 304 -24z m1061 -6 c65 -39 105 -91 119
-156 21 -101 -20 -190 -106 -232 l-46 -22 48 -23 c119 -55 166 -189 109 -312
-16 -34 -39 -63 -67 -83 -75 -54 -115 -60 -406 -60 l-263 0 -2 456 c-2 251 -1
458 2 461 3 2 131 3 285 1 l280 -3 47 -27z m906 17 c34 -8 79 -26 100 -39 47
-30 127 -117 153 -168 66 -130 65 -348 -2 -480 -35 -68 -122 -152 -192 -184
-62 -29 -63 -29 -289 -32 l-228 -4 0 461 0 461 198 0 c138 0 216 -5 260 -15z"/>
<path d="M3615 3918 c-3 -8 -5 -55 -3 -103 l3 -89 107 0 c60 1 120 6 136 13
55 23 70 109 28 158 -24 27 -27 28 -145 31 -97 3 -122 1 -126 -10z"/>
<path d="M3617 3554 c-4 -4 -7 -54 -7 -111 l0 -103 124 0 c112 0 126 2 157 23
64 43 62 122 -4 171 -24 18 -46 21 -145 24 -65 2 -120 0 -125 -4z"/>
<path d="M4680 3805 l0 -127 109 4 c100 3 112 5 135 27 38 36 50 90 31 138
-23 59 -60 75 -177 81 l-98 5 0 -128z"/>
<path d="M5682 3828 l3 -103 105 0 c62 1 118 6 137 14 56 23 72 108 29 158
-24 28 -26 28 -150 31 l-127 4 3 -104z"/>
<path d="M5680 3451 l0 -111 123 0 c145 0 178 13 198 78 14 47 0 83 -44 116
-25 18 -45 21 -153 24 l-124 4 0 -111z"/>
<path d="M6750 3629 l0 -291 83 3 c71 3 90 8 126 32 116 77 147 321 58 454
-45 67 -99 93 -194 93 l-73 0 0 -291z"/>
<path d="M602 5993 c-44 -371 -44 -815 0 -1186 6 -53 13 -95 15 -93 3 3 -3 71
-14 153 -26 214 -26 852 0 1066 11 82 17 150 14 153 -2 2 -9 -40 -15 -93z"/>
<path d="M1930 3417 c-105 -49 -125 -125 -73 -284 30 -93 26 -116 -21 -121
-65 -8 -122 107 -84 168 11 17 7 25 -32 65 l-45 46 -22 -26 c-64 -74 -45 -207
43 -305 71 -78 155 -100 240 -61 94 43 114 127 65 271 -17 50 -31 95 -31 100
0 5 11 17 25 26 23 15 27 15 51 -1 39 -25 58 -78 43 -122 -12 -39 -10 -42 59
-90 29 -20 41 -10 57 55 18 66 4 126 -43 193 -60 85 -157 121 -232 86z"/>
<path d="M8686 3375 l-36 -55 90 -60 c50 -33 90 -63 90 -65 0 -3 -21 -36 -46
-75 l-46 -69 -89 60 c-48 32 -92 59 -96 59 -9 0 -73 -95 -73 -107 0 -6 446
-309 472 -321 8 -4 83 106 77 112 -2 1 -46 31 -96 66 -51 35 -93 65 -93 67 0
5 54 86 80 120 l17 21 93 -64 c52 -35 97 -64 100 -64 9 0 71 101 68 111 -3 9
-458 319 -469 319 -3 0 -23 -25 -43 -55z"/>
<path d="M2227 2892 c-164 -147 -203 -190 -216 -239 -22 -82 26 -175 132 -256
63 -48 119 -57 178 -26 38 19 349 283 349 296 0 11 -64 83 -74 83 -6 0 -49
-35 -96 -77 -201 -180 -219 -193 -254 -193 -44 0 -96 55 -96 103 0 34 37 74
223 235 48 42 87 80 87 85 0 11 -83 107 -93 107 -4 0 -67 -53 -140 -118z"/>
<path d="M8227 2775 l-49 -56 145 -257 c80 -141 150 -257 157 -257 7 0 27 17
44 38 l31 38 -30 54 -29 54 60 63 c32 35 62 64 66 66 3 2 30 -9 59 -23 l52
-27 46 53 c25 29 45 55 44 57 -4 8 -522 252 -535 252 -7 0 -35 -25 -61 -55z
m278 -203 c0 -11 -64 -87 -68 -81 -9 10 -97 160 -97 164 0 2 37 -14 83 -36 45
-22 82 -43 82 -47z"/>
<path d="M2620 2354 c-91 -107 -173 -205 -182 -218 -17 -22 -15 -23 119 -136
74 -63 138 -116 142 -118 4 -1 23 18 43 42 l37 43 -85 72 c-46 40 -84 75 -84
79 1 4 66 83 145 177 80 93 145 172 145 175 -1 9 -94 80 -105 80 -5 0 -84 -88
-175 -196z"/>
<path d="M7880 2431 c-86 -26 -162 -102 -178 -178 -39 -182 167 -427 335 -398
86 16 168 88 180 159 5 34 25 48 38 26 10 -16 40 -12 58 8 16 17 12 25 -74
133 -50 63 -97 114 -104 114 -7 0 -51 -31 -99 -68 l-87 -68 32 -44 c18 -25 37
-42 43 -38 6 4 26 18 45 32 32 24 34 25 47 6 19 -25 18 -44 -6 -82 -42 -69
-122 -58 -201 26 -50 53 -77 103 -86 156 -5 29 -1 39 25 65 36 36 86 40 124
11 l25 -20 47 48 48 49 -34 25 c-53 40 -122 55 -178 38z"/>
<path d="M3260 2158 c-14 -11 -119 -99 -233 -196 l-209 -175 53 -34 53 -33 31
28 c62 58 56 57 137 6 40 -25 74 -48 76 -49 2 -2 -4 -27 -12 -56 -9 -29 -16
-56 -16 -59 0 -8 120 -84 125 -79 1 2 19 67 40 144 20 77 54 207 76 289 22 82
38 150 37 151 -2 1 -16 10 -33 21 -16 11 -46 30 -65 41 l-35 21 -25 -20z m-31
-244 c-11 -44 -24 -82 -28 -86 -7 -8 -92 43 -88 53 4 10 131 119 134 115 2 -2
-6 -39 -18 -82z"/>
<path d="M7428 2117 c-21 -12 -38 -25 -38 -30 0 -5 107 -202 147 -270 7 -12
-15 0 -178 99 l-140 84 -62 -36 c-34 -20 -63 -37 -65 -39 -1 -1 61 -115 138
-253 l142 -251 44 21 c24 12 44 27 44 34 0 7 -38 80 -85 163 -86 153 -95 172
-72 153 6 -5 90 -55 184 -111 l173 -101 50 27 c27 16 50 30 50 33 -1 13 -276
494 -285 496 -5 2 -27 -7 -47 -19z"/>
<path d="M3556 1703 c-20 -148 -39 -280 -42 -294 -3 -17 0 -28 8 -32 7 -3 36
-14 64 -25 l51 -21 108 150 c59 82 109 148 111 146 2 -1 -8 -77 -22 -167 -14
-90 -24 -173 -22 -184 4 -27 117 -74 129 -54 4 7 82 113 173 236 91 122 166
226 166 231 0 10 -98 46 -105 39 -2 -2 -51 -71 -109 -152 -59 -84 -106 -141
-106 -130 0 10 11 95 25 188 14 93 24 170 23 171 -10 8 -103 45 -112 45 -6 -1
-56 -64 -111 -141 -104 -146 -133 -180 -122 -144 9 28 57 319 57 341 0 14 -16
26 -55 42 -31 12 -59 22 -64 22 -4 0 -25 -120 -45 -267z"/>
<path d="M6770 1797 c-102 -38 -186 -71 -188 -72 -3 -3 195 -535 201 -541 3
-3 377 135 385 141 2 2 -5 26 -15 54 -11 31 -24 51 -33 51 -8 -1 -67 -21 -130
-45 -63 -24 -115 -43 -115 -42 -18 35 -42 108 -36 112 5 2 46 18 92 35 46 17
87 35 92 39 4 4 0 29 -9 55 -19 55 -15 55 -141 8 l-81 -31 -16 40 c-28 69 -40
60 187 144 26 10 46 23 44 29 -31 77 -40 96 -46 95 -3 -1 -89 -33 -191 -72z"/>
<path d="M6260 1643 c-107 -25 -196 -47 -198 -48 -5 -5 9 -91 17 -104 6 -10
22 -9 71 4 34 9 64 14 67 12 2 -3 22 -81 43 -173 42 -185 62 -267 65 -272 3
-3 128 27 132 32 2 1 -20 101 -47 221 -27 119 -47 221 -45 225 3 5 24 11 48
15 84 15 86 17 73 76 -7 29 -16 54 -22 55 -5 1 -97 -19 -204 -43z"/>
<path d="M4376 1598 c-8 -40 -35 -165 -60 -278 -25 -113 -42 -208 -38 -211 4
-3 86 -23 182 -43 96 -21 185 -40 197 -43 19 -4 23 1 33 52 6 31 10 58 8 59
-1 1 -59 15 -128 30 -68 15 -126 29 -128 31 -5 5 8 90 17 103 4 7 35 5 104
-10 58 -12 102 -17 107 -12 4 5 11 30 15 55 l7 45 -102 23 -102 23 7 46 c4 26
10 50 14 55 4 4 60 -4 124 -18 64 -14 123 -25 130 -25 11 0 43 97 35 106 -4 3
-381 84 -395 84 -6 0 -18 -33 -27 -72z"/>
<path d="M5026 1556 c-89 -33 -131 -89 -131 -176 0 -91 48 -136 190 -177 69
-20 95 -39 95 -68 0 -77 -176 -69 -196 10 -6 23 -10 25 -43 20 -104 -17 -105
-18 -71 -85 36 -70 118 -110 230 -110 133 0 220 72 220 183 0 92 -46 141 -172
182 -101 33 -126 54 -111 88 28 60 137 33 169 -41 3 -5 99 20 108 29 13 11
-10 62 -42 92 -56 54 -175 79 -246 53z"/>
<path d="M5507 1543 c-3 -5 0 -134 6 -288 l12 -280 69 -3 69 -3 -7 213 c-4
117 -9 248 -13 291 l-6 77 -63 0 c-34 0 -65 -3 -67 -7z"/>
</g>
</svg>
